<svg width="37" height="37" viewBox="0 0 37 37" fill="none" xmlns="http://www.w3.org/2000/svg">
<path d="M18.5004 0.166748C12.0247 0.166748 9.64976 3.3517 9.64976 5.707V9.6495H17.8682V10.9139H5.70726C4.30746 10.9139 2.87136 11.4443 1.83266 12.687C0.793893 13.9296 0.166992 15.8267 0.166992 18.5001C0.166992 21.1734 0.793893 23.0706 1.83266 24.3132C2.87136 25.5558 4.30746 26.0863 5.70726 26.0863H9.64976V31.2932C9.64976 33.6484 12.0247 36.8334 18.5004 36.8334C24.976 36.8334 27.3509 33.6484 27.3509 31.2932V27.3507H19.1325V26.0863H31.2934C32.6932 26.0863 34.1293 25.5558 35.168 24.3132C36.2068 23.0706 36.8337 21.1734 36.8337 18.5001C36.8337 15.8267 36.2068 13.9296 35.168 12.687C34.1293 11.4443 32.6932 10.9139 31.2934 10.9139H27.3522V5.707C27.3518 4.4978 26.7597 3.082 25.3482 1.9979C23.9367 0.913688 21.7355 0.166748 18.5004 0.166748ZM18.5004 1.4311C21.5409 1.4311 23.4488 2.1334 24.5777 3.0005C25.7066 3.8675 26.0875 4.9046 26.0878 5.707V10.9139H26.0866V15.2811C26.0866 15.8002 25.8997 16.2943 25.5902 16.7085C25.1772 17.2607 24.547 17.6712 23.8554 17.8136C23.6825 17.8492 23.5063 17.8679 23.3282 17.8679H13.6725C11.5576 17.8679 9.64976 19.563 9.64976 21.719V24.8219H5.70726C4.61236 24.8219 3.59486 24.4491 2.80316 23.502C2.01146 22.5549 1.43136 20.9759 1.43136 18.5001C1.43136 16.0243 2.01146 14.4453 2.80316 13.4982C3.59486 12.5511 4.61236 12.1782 5.70726 12.1782H19.1325V8.3851H10.9142V5.707C10.9142 4.1996 12.4246 1.4311 18.5004 1.4311ZM15.0233 3.9599C14.6042 3.9599 14.2022 4.1264 13.9058 4.4228C13.6094 4.7192 13.4429 5.1211 13.4429 5.5403C13.4429 5.9595 13.6094 6.3615 13.9058 6.6579C14.2022 6.9543 14.6042 7.1208 15.0233 7.1208C15.4425 7.1208 15.8445 6.9543 16.1409 6.6579C16.4373 6.3615 16.6038 5.9595 16.6038 5.5403C16.6038 5.1211 16.4373 4.7192 16.1409 4.4228C15.8445 4.1264 15.4425 3.9599 15.0233 3.9599ZM27.3522 12.1782H31.2934C32.3883 12.1782 33.4058 12.5511 34.1975 13.4982C34.9893 14.4453 35.5693 16.0243 35.5693 18.5001C35.5693 20.9759 34.9893 22.5549 34.1975 23.502C33.4058 24.4491 32.3883 24.8219 31.2934 24.8219H17.8682V28.615H26.0866V31.2932C26.0866 32.8005 24.5761 35.569 18.5004 35.569C12.4246 35.569 10.9142 32.8005 10.9142 31.2932V21.719C10.9142 21.546 10.9354 21.3757 10.9747 21.2103C11.2493 20.0528 12.4254 19.1323 13.6725 19.1323H23.3282C23.4604 19.1323 23.5919 19.1255 23.722 19.1125C24.5027 19.0349 25.2389 18.729 25.8421 18.2618H25.8433C25.9436 18.184 26.0398 18.1013 26.1322 18.0148H26.1335C26.8751 17.3216 27.3522 16.3592 27.3522 15.2811V12.1782ZM8.15576 13.4858C7.98826 13.4884 7.82866 13.5574 7.71206 13.6775C7.59536 13.7977 7.53116 13.9592 7.53336 14.1267V15.391C7.53226 15.4748 7.54766 15.558 7.57896 15.6357C7.61016 15.7134 7.65656 15.7842 7.71536 15.8439C7.77416 15.9035 7.84426 15.9509 7.92156 15.9832C7.99886 16.0156 8.08186 16.0322 8.16556 16.0322C8.24936 16.0322 8.33236 16.0156 8.40956 15.9832C8.48686 15.9509 8.55696 15.9035 8.61576 15.8439C8.67466 15.7842 8.72096 15.7134 8.75226 15.6357C8.78346 15.558 8.79896 15.4748 8.79776 15.391V14.1267C8.79896 14.0421 8.78316 13.9581 8.75126 13.8798C8.71936 13.8014 8.67206 13.7303 8.61226 13.6705C8.55236 13.6107 8.48106 13.5636 8.40266 13.5319C8.32426 13.5002 8.24026 13.4845 8.15576 13.4858ZM11.0413 13.4858C10.8739 13.4884 10.7143 13.5574 10.5976 13.6775C10.481 13.7977 10.4167 13.9592 10.419 14.1267V15.391C10.4178 15.4748 10.4333 15.558 10.4646 15.6357C10.4958 15.7134 10.5422 15.7842 10.601 15.8439C10.6598 15.9035 10.7299 15.9509 10.8072 15.9832C10.8845 16.0156 10.9674 16.0322 11.0512 16.0322C11.135 16.0322 11.2179 16.0156 11.2952 15.9832C11.3725 15.9509 11.4426 15.9035 11.5014 15.8439C11.5602 15.7842 11.6066 15.7134 11.6379 15.6357C11.6691 15.558 11.6846 15.4748 11.6834 15.391V14.1267C11.6845 14.0421 11.6687 13.9581 11.6369 13.8798C11.605 13.8014 11.5577 13.7303 11.4978 13.6705C11.438 13.6107 11.3667 13.5636 11.2883 13.5319C11.2099 13.5002 11.1259 13.4845 11.0413 13.4858ZM13.9281 13.4858C13.7607 13.4884 13.6011 13.5574 13.4844 13.6775C13.3678 13.7977 13.3035 13.9592 13.3058 14.1267V15.391C13.3046 15.4748 13.3201 15.558 13.3514 15.6357C13.3826 15.7134 13.429 15.7842 13.4878 15.8439C13.5466 15.9035 13.6167 15.9509 13.694 15.9832C13.7713 16.0156 13.8542 16.0322 13.938 16.0322C14.0218 16.0322 14.1047 16.0156 14.182 15.9832C14.2593 15.9509 14.3294 15.9035 14.3882 15.8439C14.4471 15.7842 14.4934 15.7134 14.5247 15.6357C14.5559 15.558 14.5714 15.4748 14.5702 15.391V14.1267C14.5714 14.0421 14.5555 13.9581 14.5237 13.8798C14.4918 13.8014 14.4445 13.7303 14.3846 13.6705C14.3248 13.6107 14.2535 13.5636 14.1751 13.5319C14.0967 13.5002 14.0127 13.4845 13.9281 13.4858ZM16.8137 13.4858C16.6463 13.4884 16.4867 13.5574 16.37 13.6775C16.2533 13.7977 16.1891 13.9592 16.1914 14.1267V15.391C16.1902 15.4748 16.2057 15.558 16.2369 15.6357C16.2682 15.7134 16.3146 15.7842 16.3734 15.8439C16.4322 15.9035 16.5023 15.9509 16.5796 15.9832C16.6569 16.0156 16.7398 16.0322 16.8236 16.0322C16.9074 16.0322 16.9903 16.0156 17.0676 15.9832C17.1449 15.9509 17.215 15.9035 17.2738 15.8439C17.3326 15.7842 17.379 15.7134 17.4102 15.6357C17.4415 15.558 17.457 15.4748 17.4558 15.391V14.1267C17.4569 14.0421 17.4411 13.9581 17.4092 13.8798C17.3774 13.8014 17.3301 13.7303 17.2702 13.6705C17.2103 13.6107 17.1391 13.5636 17.0607 13.5319C16.9823 13.5002 16.8983 13.4845 16.8137 13.4858ZM22.0638 21.0202C21.8964 21.0228 21.7368 21.0917 21.6201 21.2119C21.5034 21.332 21.4392 21.4935 21.4415 21.661V22.9254C21.4403 23.0091 21.4558 23.0923 21.487 23.17C21.5183 23.2478 21.5646 23.3185 21.6235 23.3782C21.6823 23.4379 21.7524 23.4852 21.8297 23.5176C21.907 23.5499 21.9899 23.5666 22.0737 23.5666C22.1575 23.5666 22.2404 23.5499 22.3177 23.5176C22.395 23.4852 22.4651 23.4379 22.5239 23.3782C22.5827 23.3185 22.6291 23.2478 22.6603 23.17C22.6916 23.0923 22.707 23.0091 22.7059 22.9254V21.661C22.707 21.5764 22.6912 21.4925 22.6593 21.4141C22.6275 21.3358 22.5802 21.2646 22.5203 21.2048C22.4604 21.1451 22.3892 21.098 22.3108 21.0662C22.2324 21.0345 22.1484 21.0189 22.0638 21.0202ZM24.9494 21.0202C24.7819 21.0228 24.6224 21.0917 24.5057 21.2119C24.389 21.332 24.3248 21.4935 24.3271 21.661V22.9254C24.3259 23.0091 24.3414 23.0923 24.3726 23.17C24.4038 23.2478 24.4502 23.3185 24.509 23.3782C24.5679 23.4379 24.6379 23.4852 24.7152 23.5176C24.7925 23.5499 24.8755 23.5666 24.9593 23.5666C25.043 23.5666 25.126 23.5499 25.2033 23.5176C25.2806 23.4852 25.3506 23.4379 25.4095 23.3782C25.4683 23.3185 25.5147 23.2478 25.5459 23.17C25.5771 23.0923 25.5926 23.0091 25.5914 22.9254V21.661C25.5926 21.5764 25.5768 21.4925 25.5449 21.4141C25.513 21.3358 25.4658 21.2646 25.4059 21.2048C25.346 21.1451 25.2748 21.098 25.1963 21.0662C25.1179 21.0345 25.034 21.0189 24.9494 21.0202ZM27.8362 21.0202C27.6687 21.0228 27.5092 21.0917 27.3925 21.2119C27.2758 21.332 27.2116 21.4935 27.2139 21.661V22.9254C27.2127 23.0091 27.2282 23.0923 27.2594 23.17C27.2906 23.2478 27.337 23.3185 27.3958 23.3782C27.4547 23.4379 27.5248 23.4852 27.602 23.5176C27.6793 23.5499 27.7623 23.5666 27.8461 23.5666C27.9298 23.5666 28.0128 23.5499 28.0901 23.5176C28.1674 23.4852 28.2375 23.4379 28.2963 23.3782C28.3551 23.3185 28.4015 23.2478 28.4327 23.17C28.464 23.0923 28.4794 23.0091 28.4782 22.9254V21.661C28.4794 21.5764 28.4636 21.4925 28.4317 21.4141C28.3998 21.3358 28.3526 21.2646 28.2927 21.2048C28.2328 21.1451 28.1616 21.098 28.0832 21.0662C28.0047 21.0345 27.9208 21.0189 27.8362 21.0202ZM30.7218 21.0202C30.5543 21.0228 30.3947 21.0917 30.2781 21.2119C30.1614 21.332 30.0972 21.4935 30.0995 21.661V22.9254C30.0983 23.0091 30.1137 23.0923 30.145 23.17C30.1762 23.2478 30.2226 23.3185 30.2814 23.3782C30.3402 23.4379 30.4103 23.4852 30.4876 23.5176C30.5649 23.5499 30.6479 23.5666 30.7316 23.5666C30.8154 23.5666 30.8984 23.5499 30.9756 23.5176C31.0529 23.4852 31.123 23.4379 31.1818 23.3782C31.2407 23.3185 31.287 23.2478 31.3183 23.17C31.3495 23.0923 31.365 23.0091 31.3638 22.9254V21.661C31.365 21.5764 31.3492 21.4925 31.3173 21.4141C31.2854 21.3358 31.2381 21.2646 31.1783 21.2048C31.1184 21.1451 31.0471 21.098 30.9687 21.0662C30.8903 21.0345 30.8063 21.0189 30.7218 21.0202ZM22.6096 29.8794C22.1904 29.8794 21.7884 30.0459 21.492 30.3423C21.1956 30.6387 21.0291 31.0407 21.0291 31.4598C21.0291 31.879 21.1956 32.281 21.492 32.5774C21.7884 32.8738 22.1904 33.0403 22.6096 33.0403C22.8171 33.0403 23.0226 32.9994 23.2144 32.92C23.4061 32.8406 23.5803 32.7242 23.7271 32.5774C23.8739 32.4306 23.9903 32.2564 24.0697 32.0647C24.1491 31.8729 24.19 31.6674 24.19 31.4598C24.19 31.2523 24.1491 31.0468 24.0697 30.855C23.9903 30.6633 23.8739 30.4891 23.7271 30.3423C23.5803 30.1955 23.4061 30.0791 23.2144 29.9997C23.0226 29.9203 22.8171 29.8794 22.6096 29.8794Z" fill="white"/>
</svg>
