<svg width="45" height="29" viewBox="0 0 45 29" fill="none" xmlns="http://www.w3.org/2000/svg">
<path d="M26.9184 7.88927L25.8028 8.44537L25.2527 7.48387L25.8258 7.19877V2.15297L22.0016 0.240967L18.1775 2.15297V7.19877L18.7506 7.48557L18.2004 8.44537L17.0849 7.88927L13.2607 9.80137V14.8471L17.0849 16.7591L20.909 14.8471V13.4168H23.0943V14.8471L26.9184 16.7591L30.7426 14.8471V9.80137L26.9184 7.88927ZM23.7302 7.02497L22.5479 7.61607V4.46717L24.7332 3.37457V6.52347L24.7091 6.53547L24.1148 5.49747L23.1664 6.04057L23.7302 7.02497ZM22.0016 1.46247L24.0579 2.49067L22.0016 3.51877L19.9453 2.49067L22.0016 1.46247ZM19.2701 3.37457L21.4553 4.46717V7.61607L20.2731 7.02497L20.8369 6.04167L19.8885 5.49537L19.2941 6.53327L19.2701 6.52347V3.37457ZM16.5385 15.2644L14.3533 14.1718V11.0229L16.5385 12.1155V15.2644ZM15.0286 10.139L17.0849 9.11077L19.1412 10.139L17.0849 11.1671L15.0286 10.139ZM19.8164 12.3242H18.7238V13.4168H19.8164V14.1718L17.6312 15.2644V12.1155L19.8164 11.0229V12.3242ZM23.0943 12.3242H20.909V9.80137L19.1794 8.93707L19.7295 7.97557L22.0016 9.11077L24.2737 7.97507L24.8239 8.93657L23.0943 9.80137V12.3242ZM26.3721 15.2644L24.1869 14.1718V13.4168H25.2795V12.3242H24.1869V11.0229L26.3721 12.1155V15.2644ZM24.8621 10.139L26.9184 9.11077L28.9747 10.139L26.9184 11.1671L24.8621 10.139ZM29.65 14.1718L27.4647 15.2644V12.1155L29.65 11.0229V14.1718Z" fill="white"/>
<path d="M16.5384 5.76855H15.4458V6.86115H16.5384V5.76855Z" fill="white"/>
<path d="M22.5482 16.1484H21.4556V17.2411H22.5482V16.1484Z" fill="white"/>
<path d="M28.0111 5.76855H26.9185V6.86115H28.0111V5.76855Z" fill="white"/>
<path d="M3.02986 25.5704C3.02986 24.7073 2.71219 24.2757 2.07685 24.2757C1.93899 24.2757 1.80113 24.2937 1.66328 24.3297C1.53141 24.3656 1.42352 24.4106 1.33961 24.4645V26.901C1.40554 26.913 1.48946 26.925 1.59135 26.937C1.69324 26.943 1.80413 26.946 1.924 26.946C2.28963 26.946 2.56534 26.8201 2.75115 26.5684C2.93695 26.3166 3.02986 25.984 3.02986 25.5704ZM4.39644 25.6064C4.39644 25.984 4.3395 26.3256 4.22562 26.6313C4.11773 26.937 3.95889 27.1977 3.74911 27.4135C3.53933 27.6293 3.2816 27.7971 2.97591 27.917C2.67023 28.0308 2.32259 28.0878 1.933 28.0878C1.77116 28.0878 1.60034 28.0788 1.42053 28.0608C1.24671 28.0488 1.07289 28.0308 0.89907 28.0069C0.73124 27.9829 0.56941 27.9559 0.41357 27.926C0.25773 27.89 0.11988 27.854 0 27.8181V21.2099L1.33961 20.9941V23.3497C1.48946 23.2838 1.64529 23.2328 1.80713 23.1969C1.96896 23.1609 2.14278 23.1429 2.32859 23.1429C2.66424 23.1429 2.96093 23.2029 3.21866 23.3227C3.4764 23.4366 3.69217 23.6014 3.86599 23.8172C4.03981 24.033 4.17167 24.2937 4.26158 24.5994C4.35149 24.8991 4.39644 25.2347 4.39644 25.6064Z" fill="white"/>
<path d="M7.31388 28.0608C6.92428 28.0548 6.60658 28.0129 6.36078 27.9349C6.12108 27.857 5.92928 27.7491 5.78538 27.6113C5.64758 27.4674 5.55168 27.2966 5.49768 27.0988C5.44978 26.895 5.42578 26.6673 5.42578 26.4155V21.2099L6.76538 20.9941V26.1458C6.76538 26.2657 6.77438 26.3736 6.79238 26.4695C6.81038 26.5654 6.84328 26.6463 6.89128 26.7122C6.94518 26.7781 7.02018 26.8321 7.11608 26.874C7.21198 26.916 7.34078 26.943 7.50268 26.955L7.31388 28.0608Z" fill="white"/>
<path d="M12.694 25.5974C12.694 25.969 12.6401 26.3106 12.5322 26.6223C12.4243 26.928 12.2685 27.1917 12.0647 27.4135C11.8609 27.6293 11.6152 27.7971 11.3275 27.917C11.0457 28.0368 10.7281 28.0968 10.3744 28.0968C10.0268 28.0968 9.7091 28.0368 9.4214 27.917C9.1397 27.7971 8.897 27.6293 8.6932 27.4135C8.4894 27.1917 8.3306 26.928 8.2167 26.6223C8.1028 26.3106 8.0459 25.969 8.0459 25.5974C8.0459 25.2258 8.1028 24.8871 8.2167 24.5814C8.3366 24.2757 8.4984 24.015 8.7022 23.7992C8.912 23.5835 9.1577 23.4156 9.4394 23.2958C9.7271 23.1759 10.0388 23.1159 10.3744 23.1159C10.7161 23.1159 11.0278 23.1759 11.3095 23.2958C11.5972 23.4156 11.8429 23.5835 12.0467 23.7992C12.2505 24.015 12.4093 24.2757 12.5232 24.5814C12.6371 24.8871 12.694 25.2258 12.694 25.5974ZM11.3275 25.5974C11.3275 25.1838 11.2435 24.8601 11.0757 24.6264C10.9139 24.3866 10.6801 24.2667 10.3744 24.2667C10.0688 24.2667 9.832 24.3866 9.6642 24.6264C9.4963 24.8601 9.4124 25.1838 9.4124 25.5974C9.4124 26.0109 9.4963 26.3406 9.6642 26.5863C9.832 26.8261 10.0688 26.946 10.3744 26.946C10.6801 26.946 10.9139 26.8261 11.0757 26.5863C11.2435 26.3406 11.3275 26.0109 11.3275 25.5974Z" fill="white"/>
<path d="M13.5068 25.6064C13.5068 25.2647 13.5607 24.944 13.6686 24.6444C13.7825 24.3387 13.9443 24.0749 14.1541 23.8532C14.3639 23.6254 14.6186 23.4456 14.9183 23.3137C15.218 23.1819 15.5597 23.1159 15.9433 23.1159C16.195 23.1159 16.4258 23.1399 16.6355 23.1879C16.8453 23.2298 17.0491 23.2928 17.2469 23.3767L16.9682 24.4466C16.8423 24.3986 16.7045 24.3567 16.5546 24.3207C16.4048 24.2847 16.237 24.2667 16.0511 24.2667C15.6556 24.2667 15.3589 24.3896 15.1611 24.6354C14.9693 24.8811 14.8734 25.2048 14.8734 25.6064C14.8734 26.0319 14.9633 26.3616 15.1431 26.5953C15.3289 26.8291 15.6496 26.946 16.1051 26.946C16.2669 26.946 16.4407 26.931 16.6266 26.901C16.8124 26.871 16.9832 26.8231 17.139 26.7572L17.3278 27.854C17.172 27.92 16.9772 27.9769 16.7434 28.0249C16.5097 28.0728 16.2519 28.0968 15.9702 28.0968C15.5387 28.0968 15.1671 28.0338 14.8554 27.908C14.5437 27.7761 14.286 27.5993 14.0822 27.3775C13.8844 27.1558 13.7375 26.895 13.6416 26.5953C13.5517 26.2896 13.5068 25.96 13.5068 25.6064Z" fill="white"/>
<path d="M19.5671 24.95C19.699 24.8062 19.8338 24.6563 19.9717 24.5005C20.1155 24.3447 20.2534 24.1918 20.3853 24.042C20.5171 23.8861 20.64 23.7393 20.7539 23.6014C20.8737 23.4636 20.9756 23.3437 21.0596 23.2418H22.6509C22.3332 23.6074 22.0216 23.9581 21.7159 24.2937C21.4162 24.6234 21.0865 24.965 20.7269 25.3187C20.9067 25.4805 21.0925 25.6753 21.2843 25.9031C21.4761 26.1248 21.6619 26.3556 21.8417 26.5953C22.0216 26.8351 22.1864 27.0748 22.3362 27.3146C22.4861 27.5543 22.6119 27.7731 22.7138 27.9709H21.1764C21.0805 27.8151 20.9696 27.6442 20.8438 27.4584C20.7239 27.2666 20.595 27.0778 20.4572 26.892C20.3193 26.7002 20.1725 26.5174 20.0166 26.3436C19.8668 26.1698 19.7169 26.0229 19.5671 25.9031V27.9709H18.2275V21.2099L19.5671 20.9941V24.95Z" fill="white"/>
<path d="M22.8838 25.6064C22.8838 25.2647 22.9377 24.944 23.0456 24.6444C23.1595 24.3387 23.3213 24.0749 23.5311 23.8532C23.7409 23.6254 23.9956 23.4456 24.2953 23.3137C24.595 23.1819 24.9367 23.1159 25.3203 23.1159C25.572 23.1159 25.8028 23.1399 26.0125 23.1879C26.2223 23.2298 26.4261 23.2928 26.6239 23.3767L26.3452 24.4466C26.2193 24.3986 26.0815 24.3567 25.9316 24.3207C25.7818 24.2847 25.614 24.2667 25.4281 24.2667C25.0326 24.2667 24.7359 24.3896 24.5381 24.6354C24.3463 24.8811 24.2504 25.2048 24.2504 25.6064C24.2504 26.0319 24.3403 26.3616 24.5201 26.5953C24.7059 26.8291 25.0266 26.946 25.4821 26.946C25.6439 26.946 25.8177 26.931 26.0035 26.901C26.1894 26.871 26.3602 26.8231 26.516 26.7572L26.7048 27.854C26.549 27.92 26.3542 27.9769 26.1204 28.0249C25.8867 28.0728 25.6289 28.0968 25.3472 28.0968C24.9157 28.0968 24.5441 28.0338 24.2324 27.908C23.9207 27.7761 23.663 27.5993 23.4592 27.3775C23.2614 27.1558 23.1145 26.895 23.0186 26.5953C22.9287 26.2896 22.8838 25.96 22.8838 25.6064Z" fill="white"/>
<path d="M27.6045 27.9709V21.2099L28.9441 20.9941V23.2598C29.034 23.2298 29.1479 23.2029 29.2857 23.1789C29.4296 23.1489 29.5675 23.1339 29.6993 23.1339C30.0829 23.1339 30.4006 23.1879 30.6523 23.2958C30.9101 23.3976 31.1138 23.5445 31.2637 23.7363C31.4195 23.9281 31.5274 24.1559 31.5874 24.4196C31.6533 24.6833 31.6863 24.977 31.6863 25.3007V27.9709H30.3466V25.4625C30.3466 25.031 30.2897 24.7253 30.1758 24.5455C30.0679 24.3656 29.8641 24.2757 29.5645 24.2757C29.4446 24.2757 29.3307 24.2877 29.2228 24.3117C29.1209 24.3297 29.028 24.3507 28.9441 24.3746V27.9709H27.6045Z" fill="white"/>
<path d="M34.7058 27.0359C34.8377 27.0359 34.9636 27.0329 35.0834 27.0269C35.2033 27.0209 35.2992 27.0119 35.3711 26.9999V25.984C35.3172 25.972 35.2363 25.96 35.1284 25.948C35.0205 25.936 34.9216 25.93 34.8317 25.93C34.7058 25.93 34.586 25.939 34.4721 25.957C34.3642 25.969 34.2683 25.996 34.1844 26.0379C34.1005 26.0799 34.0345 26.1368 33.9866 26.2087C33.9386 26.2807 33.9146 26.3706 33.9146 26.4785C33.9146 26.6882 33.9836 26.8351 34.1214 26.919C34.2653 26.9969 34.4601 27.0359 34.7058 27.0359ZM34.5979 23.1159C34.9935 23.1159 35.3232 23.1609 35.5869 23.2508C35.8506 23.3407 36.0604 23.4696 36.2163 23.6374C36.3781 23.8052 36.492 24.009 36.5579 24.2488C36.6238 24.4885 36.6568 24.7552 36.6568 25.0489V27.836C36.465 27.878 36.1983 27.926 35.8566 27.9799C35.515 28.0398 35.1014 28.0698 34.6159 28.0698C34.3102 28.0698 34.0315 28.0428 33.7798 27.9889C33.534 27.9349 33.3213 27.848 33.1415 27.7282C32.9616 27.6023 32.8238 27.4405 32.7279 27.2427C32.632 27.0449 32.584 26.8021 32.584 26.5144C32.584 26.2387 32.638 26.0049 32.7459 25.8131C32.8597 25.6213 33.0096 25.4685 33.1954 25.3546C33.3812 25.2407 33.594 25.1598 33.8337 25.1119C34.0735 25.0579 34.3222 25.031 34.58 25.031C34.7538 25.031 34.9066 25.0399 35.0385 25.0579C35.1763 25.0699 35.2872 25.0879 35.3711 25.1119V24.986C35.3711 24.7582 35.3022 24.5754 35.1644 24.4376C35.0265 24.2997 34.7867 24.2308 34.4451 24.2308C34.2173 24.2308 33.9926 24.2488 33.7708 24.2847C33.549 24.3147 33.3572 24.3597 33.1954 24.4196L33.0246 23.3407C33.1025 23.3167 33.1984 23.2928 33.3123 23.2688C33.4321 23.2388 33.561 23.2148 33.6989 23.1969C33.8367 23.1729 33.9806 23.1549 34.1304 23.1429C34.2863 23.1249 34.4421 23.1159 34.5979 23.1159Z" fill="white"/>
<path d="M39.2079 27.9709H37.8683V23.2418H39.2079V27.9709ZM39.3337 21.8752C39.3337 22.121 39.2528 22.3158 39.091 22.4596C38.9351 22.5975 38.7493 22.6664 38.5336 22.6664C38.3178 22.6664 38.129 22.5975 37.9672 22.4596C37.8113 22.3158 37.7334 22.121 37.7334 21.8752C37.7334 21.6295 37.8113 21.4377 37.9672 21.2998C38.129 21.156 38.3178 21.084 38.5336 21.084C38.7493 21.084 38.9351 21.156 39.091 21.2998C39.2528 21.4377 39.3337 21.6295 39.3337 21.8752Z" fill="white"/>
<path d="M40.4668 23.4036C40.6946 23.3377 40.9883 23.2778 41.3479 23.2238C41.7075 23.1639 42.0851 23.1339 42.4807 23.1339C42.8823 23.1339 43.215 23.1879 43.4787 23.2958C43.7484 23.3976 43.9612 23.5445 44.117 23.7363C44.2729 23.9281 44.3838 24.1559 44.4497 24.4196C44.5156 24.6833 44.5486 24.977 44.5486 25.3007V27.9709H43.209V25.4625C43.209 25.031 43.152 24.7253 43.0382 24.5455C42.9243 24.3656 42.7115 24.2757 42.3998 24.2757C42.3039 24.2757 42.202 24.2817 42.0941 24.2937C41.9863 24.2997 41.8903 24.3087 41.8064 24.3207V27.9709H40.4668V23.4036Z" fill="white"/>
</svg>
