<svg width="37" height="33" viewBox="0 0 37 33" fill="none" xmlns="http://www.w3.org/2000/svg">
<path d="M36.8337 16.3303C36.8337 13.9013 33.7918 11.5994 29.1282 10.1719C30.2044 5.4185 29.7261 1.6368 27.6184 0.426C27.1326 0.142 26.5646 0.00749969 25.9443 0.00749969V1.6741C26.2881 1.6741 26.5646 1.7414 26.7963 1.8685C27.8128 2.4514 28.2537 4.6712 27.9099 7.5262C27.8277 8.2287 27.6932 8.9686 27.5288 9.7235C26.0639 9.3647 24.4645 9.0882 22.7829 8.9088C21.7739 7.5262 20.7276 6.2706 19.6738 5.1719C22.1102 2.9073 24.3972 1.6667 25.9518 1.6667V0C23.8965 0 21.2059 1.4649 18.4854 4.006C15.7649 1.4798 13.0743 0.0298996 11.019 0.0298996V1.6966C12.5661 1.6966 14.8606 2.9297 17.2971 5.1794C16.2507 6.278 15.2044 7.5262 14.2104 8.9088C12.5213 9.0882 10.9219 9.3647 9.45696 9.7309C9.28506 8.9836 9.15806 8.2586 9.06836 7.5635C8.71706 4.7085 9.15056 2.4888 10.1596 1.8984C10.3838 1.7638 10.6752 1.704 11.019 1.704V0.0374002C10.3912 0.0374002 9.82316 0.1719 9.32996 0.4559C7.22976 1.6667 6.75896 5.441 7.84266 10.1794C3.19386 11.6144 0.166992 13.9088 0.166992 16.3303C0.166992 18.7593 3.20886 21.0613 7.87256 22.4888C6.79626 27.2422 7.27456 31.0239 9.38226 32.2347C9.86806 32.5187 10.4361 32.6532 11.0639 32.6532C13.1192 32.6532 15.8098 31.1883 18.5303 28.6472C21.2507 31.1734 23.9413 32.6233 25.9966 32.6233C26.6244 32.6233 27.1924 32.4888 27.6857 32.2048C29.7859 30.994 30.2567 27.2197 29.173 22.4813C33.8068 21.0538 36.8337 18.7519 36.8337 16.3303ZM27.1027 11.3453C26.8262 12.3094 26.4824 13.3034 26.0938 14.2975C25.7874 13.6996 25.466 13.1016 25.1147 12.5037C24.7709 11.9058 24.4047 11.3229 24.0385 10.7549C25.0998 10.9118 26.1237 11.1061 27.1027 11.3453ZM23.6797 19.3049C23.0968 20.3139 22.4989 21.2706 21.8785 22.1599C20.7649 22.2571 19.6364 22.3094 18.5004 22.3094C17.3718 22.3094 16.2433 22.2571 15.1371 22.1674C14.5168 21.278 13.9114 20.3289 13.3285 19.3274C12.7604 18.3483 12.2448 17.3543 11.7739 16.3528C12.2373 15.3513 12.7604 14.3498 13.321 13.3707C13.9039 12.3617 14.5019 11.4051 15.1222 10.5157C16.2358 10.4185 17.3643 10.3662 18.5004 10.3662C19.6289 10.3662 20.7575 10.4185 21.8636 10.5082C22.4839 11.3976 23.0893 12.3468 23.6723 13.3483C24.2403 14.3274 24.756 15.3214 25.2268 16.3229C24.756 17.3244 24.2403 18.3259 23.6797 19.3049ZM26.0938 18.3333C26.4974 19.3348 26.8412 20.3363 27.1252 21.3079C26.1461 21.5471 25.1147 21.7489 24.0459 21.9058C24.4122 21.3303 24.7784 20.7399 25.1222 20.1345C25.466 19.5366 25.7874 18.9312 26.0938 18.3333ZM18.5153 26.3079C17.8202 25.5904 17.1252 24.7907 16.4376 23.9163C17.1102 23.9462 17.7978 23.9686 18.4929 23.9686C19.1954 23.9686 19.8905 23.9537 20.5706 23.9163C19.898 24.7907 19.2029 25.5904 18.5153 26.3079ZM12.9548 21.9058C11.8935 21.7489 10.8696 21.5546 9.89046 21.3154C10.167 20.3513 10.5108 19.3573 10.8995 18.3632C11.2059 18.9611 11.5273 19.559 11.8785 20.157C12.2298 20.7549 12.5885 21.3378 12.9548 21.9058ZM18.4779 6.3528C19.173 7.0703 19.8681 7.87 20.5557 8.7444C19.883 8.7145 19.1954 8.6921 18.5004 8.6921C17.7978 8.6921 17.1028 8.707 16.4226 8.7444C17.0953 7.87 17.7903 7.0703 18.4779 6.3528ZM12.9473 10.7549C12.5811 11.3303 12.2149 11.9208 11.8711 12.5262C11.5273 13.1241 11.2059 13.722 10.8995 14.3199C10.4959 13.3184 10.1521 12.3169 9.86806 11.3453C10.8471 11.1136 11.8785 10.9118 12.9473 10.7549ZM6.18346 20.1121C3.53766 18.9836 1.82616 17.5037 1.82616 16.3303C1.82616 15.157 3.53766 13.6697 6.18346 12.5486C6.82616 12.272 7.52876 12.0254 8.25366 11.7937C8.67966 13.2586 9.24026 14.7833 9.93526 16.3453C9.24766 17.8999 8.69466 19.417 8.27606 20.8744C7.53616 20.6428 6.83366 20.3886 6.18346 20.1121ZM10.2044 30.7922C9.18796 30.2093 8.74696 27.9895 9.09076 25.1345C9.17296 24.432 9.30746 23.6921 9.47196 22.9372C10.9368 23.296 12.5362 23.5725 14.2178 23.7519C15.2268 25.1345 16.2732 26.3901 17.327 27.4888C14.8905 29.7534 12.6035 30.994 11.0489 30.994C10.7126 30.9865 10.4286 30.9193 10.2044 30.7922ZM27.9323 25.0972C28.2836 27.9522 27.8501 30.1719 26.8412 30.7623C26.6169 30.8969 26.3255 30.9567 25.9817 30.9567C24.4346 30.9567 22.1401 29.7235 19.7036 27.4738C20.75 26.3752 21.7963 25.1271 22.7903 23.7444C24.4794 23.565 26.0788 23.2885 27.5437 22.9223C27.7156 23.6771 27.8501 24.4021 27.9323 25.0972ZM30.8098 20.1121C30.167 20.3886 29.4645 20.6353 28.7395 20.867C28.3135 19.4021 27.753 17.8774 27.0579 16.3154C27.7455 14.7608 28.2986 13.2436 28.7171 11.7862C29.457 12.0179 30.1595 12.272 30.8172 12.5486C33.463 13.6771 35.1745 15.157 35.1745 16.3303C35.167 17.5037 33.4555 18.991 30.8098 20.1121Z" fill="white"/>
</svg>
